
<svg width="139px" height="42px" viewBox="0 0 139 42" version="1.1" xmlns="http://www.w3.org/2000/svg" xmlns:xlink="http://www.w3.org/1999/xlink">
    <g id="Page-1" stroke="none" stroke-width="1" fill="none" fill-rule="evenodd">
        <g id="LVL1-First-Screen-V9" transform="translate(-119.000000, -61.000000)">
            <g id="LiftOneLogo_edit_1" transform="translate(119.000000, 61.000000)">
                <g stroke-width="1">
                    <rect id="Rectangle-path" fill="#FDC300" fill-rule="nonzero" x="0" y="0" width="74.3131434" height="24.8556353"></rect>
                    <rect id="Rectangle-path" fill="#1D1D1B" fill-rule="nonzero" x="0" y="26.5978235" width="74.3131434" height="4.39849412"></rect>
                    <rect id="Rectangle-path" fill="#1D1D1B" fill-rule="nonzero" x="76.0697728" y="0.0110117647" width="62.8190983" height="30.9891176"></rect>
                    <rect id="Rectangle-path" fill="#1D1D1B" fill-rule="nonzero" x="20.1456504" y="9.29435294" width="2.71672123" height="10.2492706"></rect>
                    <rect id="Rectangle-path" fill="#1D1D1B" fill-rule="nonzero" x="20.1456504" y="5.85021176" width="2.71672123" height="1.90881176"></rect>
                    <polygon id="Shape" fill="#1D1D1B" fill-rule="nonzero" points="14.8374501 16.8465882 14.8374501 5.55988235 11.535578 5.55988235 11.535578 19.5437647 18.5157954 19.5437647 18.5157954 16.8465882"></polygon>
                    <path d="M24.4088621,11.1807882 L24.4088621,9.28048235 L25.7474215,9.28048235 L25.7474215,8.16038824 C25.7474215,5.95023529 26.3313992,5.72929412 28.5078335,5.72929412 L29.6751491,5.72929412 L29.6751491,7.55152941 C29.476532,7.55152941 29.0719744,7.55142353 28.9108269,7.55142353 C28.5280258,7.55142353 28.1652038,7.60348235 28.1652038,7.96016471 L28.1652038,9.28048235 L29.6751491,9.28048235 L29.6751491,11.1807882 L28.3668072,11.1807882 L28.3668072,19.5436235 L25.7474215,19.5436235 L25.7474215,11.1807882 L24.4088621,11.1807882 Z" id="Shape" fill="#1D1D1B" fill-rule="nonzero"></path>
                    <path d="M35.9584468,11.1201882 L35.9584468,9.3774 L34.3980918,9.3774 L34.3980918,6.30674118 L31.5838573,6.30674118 L31.5838573,9.3774 L30.2324645,9.3774 L30.2324645,11.1201882 L31.5838573,11.1201882 L31.5838573,17.8700118 C31.5838573,17.8700118 31.6813706,18.7968 31.9599749,19.0872353 C32.2387215,19.3777059 32.6426391,19.5436235 33.6457499,19.5436235 C34.3805222,19.5598969 35.1156148,19.5322115 35.8470335,19.4607176 L35.8470335,17.9806588 L35.2897182,17.9806588 C35.2897182,17.9806588 34.3980918,18.1466118 34.3980918,16.9571294 L34.3980918,11.1201882 L35.9584468,11.1201882 Z" id="Shape" fill="#1D1D1B" fill-rule="nonzero"></path>
                    <path d="M41.3847437,5.22381176 C37.4214307,5.22381176 37.1560153,7.839 37.0498634,11.3565176 L37.0498634,13.3270941 C37.0498634,17.0104941 37.3152788,19.6993059 41.3847437,19.6993059 C45.4543153,19.6993059 45.7198018,17.0104941 45.7198018,13.3270941 L45.7198018,11.3565176 C45.6136143,7.839 45.3482345,5.22381176 41.3847437,5.22381176 Z M42.7500721,12.5416588 L42.7498588,12.5416588 C42.7433176,14.9529529 42.590311,16.2351882 42.3431683,16.8897529 C42.1865615,17.2830424 41.8134825,17.5496744 41.388121,17.5723059 L41.3843527,17.5724824 L41.3816864,17.5723059 C40.9562747,17.5497923 40.5831277,17.2831216 40.4266036,16.8897529 C40.1794609,16.2351882 40.0264187,14.9529529 40.0198064,12.5415882 L40.0195931,12.5415882 C40.0195931,12.5144824 40.0196997,12.4882941 40.0197708,12.4615765 C40.0196997,12.4347529 40.0195931,12.4085294 40.0195931,12.3814588 L40.0198064,12.3814588 C40.0264187,9.9702 40.1794609,8.68782353 40.4266036,8.03332941 C40.5655217,7.62529304 40.95105,7.35063839 41.3848859,7.35063839 C41.8187219,7.35063839 42.2042502,7.62529304 42.3431683,8.03332941 C42.590311,8.68785882 42.7433176,9.9702 42.7498588,12.3814235 L42.7500721,12.3814235 L42.7500366,12.4615765 L42.7500721,12.5416588 Z" id="Shape" fill="#1D1D1B" fill-rule="nonzero"></path>
                    <path d="M52.2330005,8.991 C50.4462284,8.991 49.94981,9.64164706 49.8118054,9.99843529 L49.8118054,9.28327059 L47.4976864,9.28327059 L47.4976864,19.5093176 L49.8118054,19.5093176 L49.8118054,12.4500706 C49.8452247,11.9158874 50.2651158,11.4852302 50.8017982,11.4346941 C51.5910054,11.4346941 51.7522596,12.0198353 51.7522596,13.3611882 L51.7522596,19.4570118 L54.7077693,19.5093176 L54.7077693,11.3683059 C54.7077693,11.3683059 54.6942959,8.991 52.2330005,8.991 Z" id="Shape" fill="#1D1D1B" fill-rule="nonzero"></path>
                    <path d="M59.3689619,14.8222235 L59.3689619,16.6694824 C59.3689619,17.2538118 59.6347327,17.9156824 60.2992309,17.9534118 C61.4195141,18.0099176 61.3056123,16.8391412 61.3625276,15.9532235 L64.0919402,15.9532235 C64.0919402,18.6503294 62.4673821,19.9494353 60.4132038,19.9494353 C58.2485721,19.9494353 56.4704031,18.9888 56.4704031,14.9267294 L56.4905243,12.3716471 C56.5114318,10.3801477 58.1334494,8.77132118 60.1393987,8.75244706 C62.8685624,8.75244706 63.5986857,9.82228235 63.9515537,11.5417059 C64.1036858,12.6286011 64.1774261,13.7248965 64.1722118,14.8222235 L59.3689619,14.8222235 Z M61.4044054,13.0350706 L61.4044054,11.8062 C61.4287934,11.5334099 61.33797,11.2628169 61.1536374,11.0590786 C60.9693049,10.8553403 60.7080224,10.7367594 60.432223,10.7316706 C59.5778174,10.7316706 59.3689619,11.4103412 59.3689619,12.1454471 L59.3689619,13.0350706 L61.4044054,13.0350706 Z" id="Shape" fill="#1D1D1B" fill-rule="nonzero"></path>
                    <path d="M65.0904652,9.17531682 C65.0959268,9.27214276 65.1189429,9.35076424 65.1595144,9.41118362 C65.2367562,9.52427632 65.3729027,9.58082182 65.5679578,9.58082182 C65.6553425,9.58082182 65.7349239,9.56842829 65.8067041,9.54364085 C65.9455834,9.49561518 66.015022,9.40963504 66.015022,9.28569784 C66.015022,9.19274494 65.9857642,9.12651699 65.9272476,9.087012 C65.8679509,9.04828163 65.775106,9.01458671 65.6487103,8.98592623 L65.4158156,8.93364049 C65.2636726,8.89955776 65.1560037,8.86198986 65.0928059,8.82093566 C64.983575,8.74967177 64.9289604,8.64316483 64.9289604,8.50141166 C64.9289604,8.34803937 64.9824047,8.22216754 65.0892949,8.12379239 C65.1961851,8.02541724 65.3475456,7.9762304 65.543381,7.9762304 C65.723612,7.9762304 65.876728,8.01941412 66.0027336,8.10578286 C66.1287392,8.19215159 66.1917411,8.33022331 66.1917411,8.52000215 L65.9728903,8.52000215 C65.961187,8.42859846 65.9362203,8.35849753 65.8979895,8.30969726 C65.8269894,8.2206174 65.7064472,8.17607814 65.5363591,8.17607814 C65.3990402,8.17607814 65.3003438,8.20473818 65.2402668,8.26205914 C65.1801898,8.31938009 65.1501518,8.38599534 65.1501518,8.46190687 C65.1501518,8.54556449 65.1852612,8.60675756 65.255481,8.64548794 C65.3015141,8.67027538 65.405672,8.70125921 65.5679578,8.73844037 L65.8090448,8.79304993 C65.9252977,8.81938658 66.0150217,8.85540529 66.0782196,8.90110713 C66.1874504,8.98089171 66.2420651,9.09669379 66.2420651,9.24851686 C66.2420651,9.43752109 66.1728215,9.57268807 66.0343324,9.65402186 C65.8958432,9.73535565 65.7349251,9.77602193 65.5515733,9.77602193 C65.3377928,9.77602193 65.170438,9.72180022 65.0495038,9.61335517 C64.9285696,9.50568473 64.8692738,9.3596734 64.8716144,9.17531682 L65.0904652,9.17531682 Z M66.5311354,8.0192209 L66.864678,8.0192209 L67.3585552,9.46230746 L67.8489214,8.0192209 L68.178953,8.0192209 L68.178953,9.72606 L67.9577616,9.72606 L67.9577616,8.71868798 C67.9577616,8.68383064 67.9585418,8.62612325 67.9601022,8.54556407 C67.9616627,8.46500489 67.9624429,8.37863745 67.9624429,8.28645915 L67.4720767,9.72606 L67.2415227,9.72606 L66.7476455,8.28645915 L66.7476455,8.3387449 C66.7476455,8.3805737 66.7486207,8.44428421 66.7505713,8.52987834 C66.7525219,8.61547247 66.7534971,8.67840839 66.7534971,8.71868798 L66.7534971,9.72606 L66.5311354,9.72606 L66.5311354,8.0192209 Z" id="SM" fill="#000000"></path>
                    <polygon id="Shape" fill="#FDC300" fill-rule="nonzero" points="93.4519396 18.6189529 93.4988299 18.6189529 93.4988299 7.21369412 96.5999164 7.21369412 96.5999164 23.8668706 92.7471279 23.8668706 88.6123223 12.2048824 88.5653609 12.2048824 88.5653609 23.8668706 85.4642744 23.8668706 85.4642744 7.21369412 89.364202 7.21369412"></polygon>
                    <path d="M99.2425517,12.0534 C99.3278878,11.1000732 99.5907919,10.1707672 100.017894,9.31274118 C100.405545,8.56327736 101.005854,7.94297996 101.744658,7.52848235 C103.673276,6.67351748 105.877187,6.67351748 107.805805,7.52848235 C108.544559,7.9429877 109.144808,8.56328761 109.532391,9.31274118 C109.959477,10.1707733 110.222381,11.1000762 110.307734,12.0534 C110.542695,14.3760164 110.542695,16.7161601 110.307734,19.0387765 C110.221501,19.9882119 109.958605,20.9135263 109.532391,21.7677529 C109.150392,22.5122565 108.547827,23.1227051 107.805805,23.5169294 C105.867507,24.3255413 103.682957,24.3255413 101.744658,23.5169294 C101.002585,23.1227131 100.399961,22.5122672 100.017894,21.7677529 C99.5916642,20.9135325 99.3287678,19.988215 99.2425517,19.0387765 C99.0077796,16.7161507 99.0077796,14.3760258 99.2425517,12.0534 Z M102.53159,18.3973765 C102.561913,19.0458878 102.672388,19.6882426 102.860533,20.31 C102.978627,20.7311284 103.224767,21.1058052 103.565345,21.3828706 C104.308039,21.833647 105.242424,21.833647 105.985118,21.3828706 C106.325573,21.105709 106.571666,20.7310662 106.689859,20.31 C106.877841,19.6882086 106.988278,19.0458696 107.018695,18.3973765 C107.073335,17.6124353 107.10078,16.6600353 107.101029,15.5401765 C107.101029,14.4206471 107.073584,13.4721882 107.018695,12.6948 C106.986816,12.0464764 106.876409,11.4043237 106.689859,10.7822118 C106.573562,10.3570403 106.327344,9.97812648 105.985118,9.69765882 C105.242451,9.24678846 104.308012,9.24678846 103.565345,9.69765882 C103.222996,9.97803078 102.976731,10.3569789 102.860533,10.7822118 C102.673821,11.4042901 102.563376,12.0464581 102.53159,12.6948 C102.476606,13.4724 102.449209,14.4208588 102.449399,15.5401765 C102.449399,16.6598471 102.476796,17.6122471 102.53159,18.3973765 Z" id="Shape" fill="#FDC300" fill-rule="nonzero"></path>
                    <polygon id="Shape" fill="#FDC300" fill-rule="nonzero" points="115.205831 7.21369412 117.06189 19.5285529 117.108851 19.5285529 119.08226 7.21369412 122.324159 7.21369412 124.297604 19.5285529 124.344565 19.5285529 126.200624 7.21369412 129.442559 7.21369412 126.388434 23.8668706 122.606034 23.8668706 120.72669 11.7852 120.679729 11.7852 118.800207 23.8668706 115.018021 23.8668706 111.963931 7.21369412"></polygon>
                </g>
                <path d="M1.1411517,40.8988235 L1.59619007,40.8988235 C1.77630949,40.8988243 1.92087882,40.8682361 2.02989851,40.8070588 C2.13891819,40.7458826 2.2254228,40.6447061 2.28941257,40.5035294 C2.35340234,40.3623529 2.39606219,40.1764706 2.41739211,39.9458824 C2.43872203,39.7152953 2.449387,39.4282365 2.449387,39.0847059 C2.449387,38.7976484 2.43990696,38.5458838 2.4209471,38.3294118 C2.40198724,38.1129512 2.36288238,37.9329514 2.30363252,37.7894118 C2.24438505,37.6458859 2.15669529,37.5376508 2.04056347,37.4647059 C1.9244349,37.3917972 1.76920038,37.3553264 1.57486014,37.3552941 L1.1411517,37.3552941 L1.1411517,40.8988235 Z M0.117315385,36.6070588 L1.79526935,36.6070588 C2.15076677,36.6070588 2.43753581,36.664706 2.65557625,36.78 C2.87361388,36.895294 3.04306834,37.0600001 3.16393943,37.2741176 C3.28480899,37.4882352 3.3665737,37.7458822 3.40923354,38.0470588 C3.45189339,38.3482352 3.47322331,38.684706 3.47322331,39.0564706 C3.47326628,39.4988235 3.44601152,39.8835294 3.39145861,40.2105882 C3.33694888,40.537647 3.24333407,40.8070588 3.11061462,41.0188235 C2.97789517,41.2305882 2.80014581,41.3882353 2.57736654,41.4917647 C2.35458857,41.5952942 2.07255965,41.6470588 1.73127958,41.6470588 L0.117315385,41.6470588 L0.117315385,36.6070588 Z M8.91946363,41.6470588 L8.91946363,36.6070588 L9.94329994,36.6070588 L9.94329994,41.6470588 L8.91946363,41.6470588 Z M17.678952,38.1035294 C17.678952,38.0094188 17.6682871,37.9129485 17.6469571,37.8141176 C17.6256272,37.7152941 17.5912623,37.624706 17.5438625,37.5423529 C17.4964628,37.4599999 17.436028,37.3917648 17.3625582,37.3376471 C17.2890884,37.2835293 17.2002137,37.2564706 17.0959341,37.2564706 C16.849455,37.2564581 16.6717056,37.392929 16.562686,37.6658824 C16.4536665,37.9388219 16.3991566,38.3905867 16.3991566,39.0211765 C16.3991566,39.3223529 16.4086366,39.5952942 16.4275965,39.84 C16.4465565,40.0847059 16.4809213,40.2929412 16.5306912,40.4647059 C16.580461,40.6364706 16.6515607,40.7682353 16.7439904,40.86 C16.8364175,40.9517647 16.9561021,40.9976471 17.1030441,40.9976471 C17.1646638,40.9976484 17.2322086,40.9811777 17.3056784,40.9482353 C17.3791482,40.9152942 17.4478779,40.8658824 17.5118676,40.8 C17.5758574,40.7341181 17.6291822,40.6505887 17.671842,40.5494118 C17.7145019,40.4482359 17.7358318,40.3294124 17.7358318,40.1929412 L17.7358318,39.6776471 L17.0603842,39.6776471 L17.0603842,38.9294118 L18.7170083,38.9294118 L18.7170083,41.6470588 L17.963351,41.6470588 L17.963351,41.1811765 L17.9491311,41.1811765 C17.825894,41.3788235 17.6777695,41.5188235 17.5047577,41.6011765 C17.3317497,41.6835294 17.1243755,41.7247059 16.8826349,41.7247059 C16.5697966,41.7247059 16.3150225,41.6705882 16.1183126,41.5623529 C15.9216034,41.4541177 15.7675538,41.2870588 15.6561643,41.0611765 C15.5447748,40.8352941 15.4701199,40.5564706 15.4322001,40.2247059 C15.3942803,39.8929412 15.3753203,39.5082353 15.3753203,39.0705882 C15.3753203,38.6470588 15.4025752,38.2752942 15.457085,37.9552941 C15.5115947,37.6352964 15.6052094,37.3682373 15.737929,37.1541176 C15.8706485,36.9400049 16.0460279,36.7788286 16.2640671,36.6705882 C16.4821064,36.5623725 16.7546553,36.5082547 17.0817142,36.5082353 C17.6410314,36.5082353 18.0439299,36.6458824 18.2904098,36.9211765 C18.5368856,37.1964689 18.660125,37.5905864 18.6601285,38.1035294 L17.678952,38.1035294 Z M24.1490287,41.6470588 L24.1490287,36.6070588 L25.172865,36.6070588 L25.172865,41.6470588 L24.1490287,41.6470588 Z M33.6266245,36.6070588 L33.6266245,37.44 L32.5174685,37.44 L32.5174685,41.6470588 L31.4936321,41.6470588 L31.4936321,37.44 L30.3844761,37.44 L30.3844761,36.6070588 L33.6266245,36.6070588 Z M40.5161896,39.7482353 L40.0256014,37.4823529 L40.0113814,37.4823529 L39.5207932,39.7482353 L40.5161896,39.7482353 Z M40.6512791,36.6070588 L41.9950643,41.6470588 L40.9285681,41.6470588 L40.693939,40.5811765 L39.3430438,40.5811765 L39.1084147,41.6470588 L38.0419185,41.6470588 L39.3857037,36.6070588 L40.6512791,36.6070588 Z M47.0715859,41.6470588 L47.0715859,36.6070588 L48.0954222,36.6070588 L48.0954222,40.8141176 L49.9084657,40.8141176 L49.9084657,41.6470588 L47.0715859,41.6470588 Z M62.5855499,40.8988235 L63.0405883,40.8988235 C63.2207077,40.8988243 63.365277,40.8682361 63.4742967,40.8070588 C63.5833164,40.7458826 63.669821,40.6447061 63.7338108,40.5035294 C63.7978006,40.3623529 63.8404604,40.1764706 63.8617903,39.9458824 C63.8831203,39.7152953 63.8937852,39.4282365 63.8937852,39.0847059 C63.8937852,38.7976484 63.8843052,38.5458838 63.8653453,38.3294118 C63.8463855,38.1129512 63.8072806,37.9329514 63.7480307,37.7894118 C63.6887833,37.6458859 63.6010935,37.5376508 63.4849617,37.4647059 C63.3688331,37.3917972 63.2135986,37.3553264 63.0192584,37.3552941 L62.5855499,37.3552941 L62.5855499,40.8988235 Z M61.5617136,36.6070588 L63.2396676,36.6070588 C63.595165,36.6070588 63.881934,36.664706 64.0999745,36.78 C64.3180121,36.895294 64.4874666,37.0600001 64.6083376,37.2741176 C64.7292072,37.4882352 64.8109719,37.7458822 64.8536318,38.0470588 C64.8962916,38.3482352 64.9176215,38.684706 64.9176215,39.0564706 C64.9176645,39.4988235 64.8904097,39.8835294 64.8358568,40.2105882 C64.7813471,40.537647 64.6877323,40.8070588 64.5550128,41.0188235 C64.4222934,41.2305882 64.244544,41.3882353 64.0217648,41.4917647 C63.7989868,41.5952942 63.5169579,41.6470588 63.1756778,41.6470588 L61.5617136,41.6470588 L61.5617136,36.6070588 Z M73.1509718,36.6070588 L73.1509718,37.44 L71.3379283,37.44 L71.3379283,38.6258824 L73.0443222,38.6258824 L73.0443222,39.4588235 L71.3379283,39.4588235 L71.3379283,40.8141176 L73.2220716,40.8141176 L73.2220716,41.6470588 L70.314092,41.6470588 L70.314092,36.6070588 L73.1509718,36.6070588 Z M80.573785,39.7482353 L80.0831968,37.4823529 L80.0689768,37.4823529 L79.5783886,39.7482353 L80.573785,39.7482353 Z M80.7088745,36.6070588 L82.0526597,41.6470588 L80.9861635,41.6470588 L80.7515344,40.5811765 L79.4006392,40.5811765 L79.1660101,41.6470588 L78.0995139,41.6470588 L79.4432991,36.6070588 L80.7088745,36.6070588 Z M87.1291813,41.6470588 L87.1291813,36.6070588 L88.1530177,36.6070588 L88.1530177,40.8141176 L89.9660611,40.8141176 L89.9660611,41.6470588 L87.1291813,41.6470588 Z M97.9790022,36.6070588 L97.9790022,37.44 L96.1659587,37.44 L96.1659587,38.6258824 L97.8723526,38.6258824 L97.8723526,39.4588235 L96.1659587,39.4588235 L96.1659587,40.8141176 L98.050102,40.8141176 L98.050102,41.6470588 L95.1421224,41.6470588 L95.1421224,36.6070588 L97.9790022,36.6070588 Z M103.283043,36.6070588 L105.174296,36.6070588 C105.600895,36.6070588 105.932693,36.7141178 106.169693,36.9282353 C106.406692,37.1423528 106.525191,37.4682353 106.525191,37.9058824 C106.525198,38.2447042 106.456468,38.5211747 106.319002,38.7352941 C106.181543,38.9494118 105.968243,39.0870589 105.679104,39.1482353 L105.679104,39.1623529 C105.935062,39.1999979 106.122291,39.2823508 106.240792,39.4094118 C106.359285,39.5364706 106.432755,39.7411765 106.461202,40.0235294 C106.470682,40.117647 106.477792,40.22 106.482532,40.3305882 C106.487163,40.4411765 106.491903,40.5647059 106.496751,40.7011765 C106.506232,40.9694118 106.520451,41.1741176 106.539411,41.3152941 C106.567837,41.4564706 106.629457,41.5529412 106.724271,41.6047059 L106.724271,41.6470588 L105.615115,41.6470588 C105.56299,41.5764706 105.52981,41.4952941 105.515575,41.4035294 C105.501355,41.3117647 105.491875,41.2164706 105.487135,41.1176471 L105.458695,40.1505882 C105.449215,39.9529412 105.399445,39.7976471 105.309386,39.6847059 C105.219326,39.5717647 105.067647,39.5152941 104.854347,39.5152941 L104.306879,39.5152941 L104.306879,41.6470588 L103.283043,41.6470588 L103.283043,36.6070588 Z M104.306879,38.8094118 L104.733478,38.8094118 C104.979956,38.8094118 105.169555,38.7517648 105.302276,38.6364706 C105.43499,38.5211764 105.50135,38.3270588 105.501355,38.0541176 C105.501355,37.5882353 105.264356,37.3552941 104.790358,37.3552941 L104.306879,37.3552941 L104.306879,38.8094118 Z M112.781969,40.0729412 L112.781969,40.2211765 C112.781969,40.3388229 112.791449,40.4458818 112.810409,40.5423529 C112.829369,40.6388236 112.864919,40.72 112.917058,40.7858824 C112.969197,40.8517646 113.039112,40.9035292 113.126803,40.9411765 C113.214492,40.978823 113.324697,40.9976464 113.457416,40.9976471 C113.613833,40.9976471 113.754847,40.9470589 113.88046,40.8458824 C114.006065,40.7447058 114.068869,40.5882353 114.068874,40.3764706 C114.068893,40.2635294 114.053488,40.1658824 114.022659,40.0835294 C113.991854,40.0011764 113.940899,39.9270588 113.869795,39.8611765 C113.798697,39.795294 113.705082,39.735294 113.588951,39.6811765 C113.472822,39.6270647 113.329437,39.5717705 113.158797,39.5152941 C112.931278,39.4400044 112.734569,39.3576515 112.56867,39.2682353 C112.40277,39.1788273 112.264126,39.0741213 112.152736,38.9541176 C112.041346,38.8341176 111.959582,38.6952942 111.907442,38.5376471 C111.855302,38.3799999 111.829232,38.1976471 111.829232,37.9905882 C111.829232,37.4917646 111.969062,37.1200001 112.248721,36.8752941 C112.52838,36.6305881 112.912318,36.5082353 113.400537,36.5082353 C113.628056,36.5082353 113.8378,36.5329412 114.029769,36.5823529 C114.221737,36.6317552 114.387637,36.7117551 114.527468,36.8223529 C114.667294,36.9329413 114.776314,37.0741178 114.854526,37.2458824 C114.932736,37.4176469 114.971841,37.6235294 114.971841,37.8635294 L114.971841,38.0047059 L113.990664,38.0047059 C113.990664,37.7647098 113.948005,37.5800037 113.862685,37.4505882 C113.777365,37.321193 113.635166,37.256487 113.436086,37.2564706 C113.322328,37.2564038 113.227528,37.2728743 113.151687,37.3058824 C113.075848,37.3387905 113.015413,37.3823201 112.970383,37.4364706 C112.925353,37.4905729 112.894543,37.5529257 112.877953,37.6235294 C112.861364,37.694103 112.853069,37.767044 112.853069,37.8423529 C112.853066,37.9976471 112.886246,38.1282353 112.952608,38.2341176 C113.018968,38.34 113.161167,38.4376471 113.379207,38.5270588 L114.168414,38.8658824 C114.362753,38.9505882 114.521542,39.0388235 114.644782,39.1305882 C114.768022,39.2223529 114.866376,39.3211765 114.939846,39.4270588 C115.013316,39.5329412 115.064271,39.6494118 115.09271,39.7764706 C115.12115,39.9035294 115.13537,40.0447059 115.13537,40.2 C115.13537,40.7317647 114.980136,41.1188235 114.669667,41.3611765 C114.359198,41.6035294 113.926675,41.7247059 113.372097,41.7247059 C112.793819,41.7247059 112.380255,41.6 112.131406,41.3505882 C111.882557,41.1011764 111.758132,40.7435294 111.758132,40.2776471 L111.758132,40.0729412 L112.781969,40.0729412 Z M120.368311,36.6070588 L121.392148,36.6070588 L121.392148,38.5341176 L122.586623,38.5341176 L122.586623,36.6070588 L123.61046,36.6070588 L123.61046,41.6470588 L122.586623,41.6470588 L122.586623,39.4094118 L121.392148,39.4094118 L121.392148,41.6470588 L120.368311,41.6470588 L120.368311,36.6070588 Z M129.09225,41.6470588 L129.09225,36.6070588 L130.116086,36.6070588 L130.116086,41.6470588 L129.09225,41.6470588 Z M136.621713,38.8870588 L137.076751,38.8870588 C137.280569,38.8870588 137.445284,38.8258824 137.570894,38.7035294 C137.696497,38.5811764 137.759301,38.3905882 137.759309,38.1317647 C137.759316,37.8776471 137.704806,37.684706 137.595779,37.5529412 C137.486761,37.4211763 137.304271,37.3552941 137.048311,37.3552941 L136.621713,37.3552941 L136.621713,38.8870588 Z M135.597876,36.6070588 L137.38959,36.6070588 C137.650288,36.6070588 137.869512,36.6505884 138.047263,36.7376471 C138.225012,36.8247057 138.368396,36.9388235 138.477416,37.08 C138.586436,37.2211722 138.664645,37.3823489 138.712045,37.5635294 C138.759432,37.7447026 138.783132,37.9294082 138.783145,38.1176471 C138.783145,38.3764705 138.74404,38.6023529 138.66583,38.7952941 C138.587621,38.9882341 138.478601,39.1458812 138.338772,39.2682353 C138.198942,39.3905883 138.029488,39.482353 137.830408,39.5435294 C137.631329,39.6047058 137.41092,39.6352941 137.169181,39.6352941 L136.621713,39.6352941 L136.621713,41.6470588 L135.597876,41.6470588 L135.597876,36.6070588 Z" id="DIGITAL-DEALERSHIP" fill="#000000"></path>
            </g>
        </g>
    </g>
</svg>
